<svg viewBox="0 0 24 24" xmlns="http://www.w3.org/2000/svg">
  <path fill="#34D399" d="M12 2C12 2 2 7 2 12C2 16 6 20 12 20C18 20 22 16 22 12C22 7 12 2 12 2ZM12 4C12 4 20 8 20 12C20 15 17 18 12 18C7 18 4 15 4 12C4 8 12 4 12 4ZM12 6C12 6 8 8 8 11C8 13 10 15 12 15C14 15 16 13 16 11C16 8 12 6 12 6ZM12 8C12 8 14 9 14 11C14 12 13 13 12 13C11 13 10 12 10 11C10 9 12 8 12 8Z"/>
  <path fill="#34D399" fill-opacity="0.8" d="M12 8L11 10L12 12L13 10L12 8Z"/>
  <path fill="#34D399" fill-opacity="0.6" d="M12 2L11 3L12 4L13 3L12 2Z"/>
  <path fill="#34D399" fill-opacity="0.6" d="M12 20L11 21L12 22L13 21L12 20Z"/>
</svg>
